<svg width="1200" height="700" viewBox="0 0 1200 700" fill="none" xmlns="http://www.w3.org/2000/svg">
  <rect width="1200" height="700" fill="#111827"></rect>
  <rect width="1200" height="700" fill="url(#paint0_linear)"></rect>
  <circle cx="995" cy="102" r="215" fill="#ffffff" fill-opacity="0.06"></circle>
  <circle cx="156" cy="590" r="250" fill="#ffffff" fill-opacity="0.04"></circle>
  <rect x="84" y="112" width="1032" height="476" rx="40" fill="#ffffff" fill-opacity="0.06" stroke="#ffffff" stroke-opacity="0.12"></rect>
  <rect x="130" y="170" width="320" height="24" rx="12" fill="#ffffff" fill-opacity="0.18"></rect>
  <rect x="130" y="218" width="520" height="56" rx="18" fill="#ffffff" fill-opacity="0.12"></rect>
  <rect x="130" y="292" width="430" height="20" rx="10" fill="#ffffff" fill-opacity="0.14"></rect>
  <rect x="130" y="326" width="380" height="20" rx="10" fill="#ffffff" fill-opacity="0.14"></rect>
  <rect x="130" y="390" width="180" height="52" rx="18" fill="#ffffff"></rect>
  <rect x="760" y="188" width="250" height="250" rx="36" fill="#ffffff" fill-opacity="0.12"></rect>
  <path d="M835 275C835 251.252 854.252 232 878 232C901.748 232 921 251.252 921 275V351H835V275Z" fill="#ffffff" fill-opacity="0.85"></path>
  <rect x="814" y="351" width="128" height="36" rx="18" fill="#ffffff" fill-opacity="0.85"></rect>
  <defs>
    <linearGradient id="paint0_linear" x1="0" y1="0" x2="1200" y2="700" gradientUnits="userSpaceOnUse">
      <stop stop-color="#0F172A"></stop>
      <stop offset="0.55" stop-color="#1F2937"></stop>
      <stop offset="1" stop-color="#111827"></stop>
    </linearGradient>
  </defs>
</svg>